<?xml version="1.0" encoding="UTF-8"?>
<!DOCTYPE svg PUBLIC "-//W3C//DTD SVG 1.1//EN" "http://www.w3.org/Graphics/SVG/1.1/DTD/svg11.dtd">
<svg xmlns="http://www.w3.org/2000/svg" version="1.1" width="295px" height="127px" style="shape-rendering:geometricPrecision; text-rendering:geometricPrecision; image-rendering:optimizeQuality; fill-rule:evenodd; clip-rule:evenodd" xmlns:xlink="http://www.w3.org/1999/xlink">
<g><path style="opacity:1" fill="#fefefe" d="M -0.5,-0.5 C 97.8333,-0.5 196.167,-0.5 294.5,-0.5C 294.5,41.8333 294.5,84.1667 294.5,126.5C 196.167,126.5 97.8333,126.5 -0.5,126.5C -0.5,84.1667 -0.5,41.8333 -0.5,-0.5 Z"/></g>
<g><path style="opacity:1" fill="#9cc0d0" d="M 79.5,36.5 C 96.8333,35.1667 114.167,35.1667 131.5,36.5C 127.833,36.5 124.167,36.5 120.5,36.5C 120.5,45.1667 120.5,53.8333 120.5,62.5C 119.833,62.5 119.167,62.5 118.5,62.5C 118.5,53.8333 118.5,45.1667 118.5,36.5C 115.167,36.5 111.833,36.5 108.5,36.5C 108.167,36.5 107.833,36.5 107.5,36.5C 98.1667,36.5 88.8333,36.5 79.5,36.5 Z"/></g>
<g><path style="opacity:1" fill="#88adbf" d="M 62.5,36.5 C 65.2869,35.5233 68.2869,35.19 71.5,35.5C 71.5,42.8333 71.5,50.1667 71.5,57.5C 70.5088,50.6866 70.1755,43.6866 70.5,36.5C 67.8333,36.5 65.1667,36.5 62.5,36.5 Z"/></g>
<g><path style="opacity:1" fill="#15719b" d="M 62.5,36.5 C 65.1667,36.5 67.8333,36.5 70.5,36.5C 70.1755,43.6866 70.5088,50.6866 71.5,57.5C 73.8333,57.5 76.1667,57.5 78.5,57.5C 78.1755,50.3134 78.5088,43.3134 79.5,36.5C 88.8333,36.5 98.1667,36.5 107.5,36.5C 106.386,37.8853 105.386,39.3853 104.5,41C 98.6518,41.1728 92.9851,41.6728 87.5,42.5C 87.5,43.8333 87.5,45.1667 87.5,46.5C 91.3123,47.3238 95.3123,47.8238 99.5,48C 98.1772,48.8159 97.5106,49.9826 97.5,51.5C 94.0588,52.0965 90.7254,52.7632 87.5,53.5C 87.5,55.5 87.5,57.5 87.5,59.5C 79.1667,59.5 70.8333,59.5 62.5,59.5C 62.5,51.8333 62.5,44.1667 62.5,36.5 Z"/></g>
<g><path style="opacity:1" fill="#14709a" d="M 108.5,36.5 C 111.833,36.5 115.167,36.5 118.5,36.5C 118.5,45.1667 118.5,53.8333 118.5,62.5C 115.833,62.5 113.167,62.5 110.5,62.5C 110.666,56.8236 110.499,51.1569 110,45.5C 106.478,50.5665 102.978,55.5665 99.5,60.5C 96.6122,61.0102 94.2789,60.3435 92.5,58.5C 93.5,57.1667 94.5,55.8333 95.5,54.5C 96.9063,54.0269 97.573,53.0269 97.5,51.5C 99.543,50.4206 100.876,48.754 101.5,46.5C 102.167,45.5 102.833,44.5 103.5,43.5C 105.9,41.7036 107.567,39.3702 108.5,36.5 Z"/></g>
<g><path style="opacity:1" fill="#0c6d9b" d="M 170.5,58.5 C 169.079,51.4212 167.413,44.4212 165.5,37.5C 168.625,36.5206 171.958,36.1872 175.5,36.5C 175.5,43.5 175.5,50.5 175.5,57.5C 173.784,57.6287 172.117,57.962 170.5,58.5 Z"/></g>
<g><path style="opacity:1" fill="#f6e1b2" d="M 232.5,39.5 C 223.083,39.1945 213.75,39.5279 204.5,40.5C 208.783,39.1734 213.449,38.5067 218.5,38.5C 223.346,38.5008 228.012,38.8341 232.5,39.5 Z"/></g>
<g><path style="opacity:1" fill="#f6d3a0" d="M 233.5,39.5 C 235.89,39.6848 236.89,41.0182 236.5,43.5C 236.372,45.9548 235.372,47.9548 233.5,49.5C 232.957,49.44 232.624,49.1067 232.5,48.5C 235.946,45.7513 236.279,42.7513 233.5,39.5 Z"/></g>
<g><path style="opacity:1" fill="#6ca0b6" d="M 107.5,36.5 C 107.833,36.5 108.167,36.5 108.5,36.5C 107.567,39.3702 105.9,41.7036 103.5,43.5C 98.3595,42.5119 93.0262,42.1786 87.5,42.5C 92.9851,41.6728 98.6518,41.1728 104.5,41C 105.386,39.3853 106.386,37.8853 107.5,36.5 Z"/></g>
<g><path style="opacity:1" fill="#f1aa57" d="M 193.5,40.5 C 195.607,39.5318 197.941,39.1984 200.5,39.5C 200.19,42.7131 200.523,45.7131 201.5,48.5C 201.5,49.1667 201.5,49.8333 201.5,50.5C 200.883,50.3893 200.383,50.056 200,49.5C 199.502,46.5184 199.335,43.5184 199.5,40.5C 197.5,40.5 195.5,40.5 193.5,40.5 Z"/></g>
<g><path style="opacity:1" fill="#1d7399" d="M 165.5,37.5 C 167.413,44.4212 169.079,51.4212 170.5,58.5C 170.5,59.1667 170.167,59.5 169.5,59.5C 167.744,58.4479 167.077,56.7812 167.5,54.5C 167.665,51.4816 167.498,48.4816 167,45.5C 162.943,50.5585 159.276,55.8918 156,61.5C 154.989,62.3366 153.822,62.67 152.5,62.5C 150.801,62.6602 149.134,62.4935 147.5,62C 149.745,59.2691 151.745,56.4358 153.5,53.5C 157.147,47.86 161.147,42.5266 165.5,37.5 Z"/></g>
<g><path style="opacity:1" fill="#f7f8f9" d="M 87.5,42.5 C 93.0262,42.1786 98.3595,42.5119 103.5,43.5C 102.833,44.5 102.167,45.5 101.5,46.5C 96.8333,46.5 92.1667,46.5 87.5,46.5C 87.5,45.1667 87.5,43.8333 87.5,42.5 Z"/></g>
<g><path style="opacity:1" fill="#f4c67e" d="M 188.5,39.5 C 189.314,41.631 189.814,43.9644 190,46.5C 190.383,45.944 190.883,45.6107 191.5,45.5C 191.262,47.4044 190.262,48.7377 188.5,49.5C 188.5,49.1667 188.5,48.8333 188.5,48.5C 188.5,45.5 188.5,42.5 188.5,39.5 Z"/></g>
<g><path style="opacity:1" fill="#1c729b" d="M 61.5,36.5 C 61.5,43.8333 61.5,51.1667 61.5,58.5C 58.8333,58.5 56.1667,58.5 53.5,58.5C 53.6658,53.8215 53.4992,49.1548 53,44.5C 51.9614,45.2438 51.4614,46.2438 51.5,47.5C 48.03,51.817 44.6966,56.317 41.5,61C 38.4937,61.3324 35.6604,62.1657 33,63.5C 32.3333,62.8333 32.3333,62.1667 33,61.5C 39.0452,53.2437 45.2118,45.077 51.5,37C 54.8168,36.5017 58.1501,36.335 61.5,36.5 Z"/></g>
<g><path style="opacity:1" fill="#9bb8c6" d="M 87.5,46.5 C 92.1667,46.5 96.8333,46.5 101.5,46.5C 100.876,48.754 99.543,50.4206 97.5,51.5C 97.5106,49.9826 98.1772,48.8159 99.5,48C 95.3123,47.8238 91.3123,47.3238 87.5,46.5 Z"/></g>
<g><path style="opacity:1" fill="#fb7e04" d="M 188.5,48.5 C 188.5,48.8333 188.5,49.1667 188.5,49.5C 189.793,50.6448 190.959,50.3115 192,48.5C 192.464,49.0944 192.631,49.7611 192.5,50.5C 191.736,53.0177 190.736,55.351 189.5,57.5C 187.833,57.5 186.167,57.5 184.5,57.5C 184.5,52.1667 184.5,46.8333 184.5,41.5C 185.5,41.5 186.5,41.5 187.5,41.5C 187.198,44.0593 187.532,46.3926 188.5,48.5 Z"/></g>
<g><path style="opacity:1" fill="#f29131" d="M 193.5,41.5 C 193.643,43.2624 193.309,44.9291 192.5,46.5C 193.689,47.4287 195.022,47.762 196.5,47.5C 196.46,50.8806 196.793,54.2139 197.5,57.5C 208.128,58.4296 218.795,58.763 229.5,58.5C 218.679,59.4946 207.679,59.8279 196.5,59.5C 195.979,55.8282 195.313,52.1616 194.5,48.5C 193.818,49.2427 193.151,49.9094 192.5,50.5C 192.631,49.7611 192.464,49.0944 192,48.5C 190.959,50.3115 189.793,50.6448 188.5,49.5C 190.262,48.7377 191.262,47.4044 191.5,45.5C 191.66,43.847 192.326,42.5137 193.5,41.5 Z"/></g>
<g><path style="opacity:1" fill="#fb7d05" d="M 193.5,40.5 C 195.5,40.5 197.5,40.5 199.5,40.5C 199.335,43.5184 199.502,46.5184 200,49.5C 200.383,50.056 200.883,50.3893 201.5,50.5C 205.668,51.7446 206.335,50.578 203.5,47C 203.833,46.5 204.167,46 204.5,45.5C 206.419,45.6137 208.419,46.2804 210.5,47.5C 210.833,47.5 211.167,47.5 211.5,47.5C 211.5,48.5 211.5,49.5 211.5,50.5C 209.824,51.1834 209.157,52.5168 209.5,54.5C 211.948,55.4731 214.615,55.8064 217.5,55.5C 217.768,53.901 217.434,52.5676 216.5,51.5C 216.5,51.1667 216.5,50.8333 216.5,50.5C 216.389,49.8826 216.056,49.3826 215.5,49C 216.833,48.3333 218.167,48.3333 219.5,49C 220.926,51.0454 221.926,53.2121 222.5,55.5C 225.005,56.4967 227.672,56.4967 230.5,55.5C 230.5,56.5 230.5,57.5 230.5,58.5C 230.167,58.5 229.833,58.5 229.5,58.5C 218.795,58.763 208.128,58.4296 197.5,57.5C 196.793,54.2139 196.46,50.8806 196.5,47.5C 195.022,47.762 193.689,47.4287 192.5,46.5C 193.309,44.9291 193.643,43.2624 193.5,41.5C 193.5,41.1667 193.5,40.8333 193.5,40.5 Z"/></g>
<g><path style="opacity:1" fill="#f58418" d="M 232.5,39.5 C 232.833,39.5 233.167,39.5 233.5,39.5C 236.279,42.7513 235.946,45.7513 232.5,48.5C 232.624,49.1067 232.957,49.44 233.5,49.5C 235.374,53.4703 234.374,56.4703 230.5,58.5C 230.5,57.5 230.5,56.5 230.5,55.5C 227.672,56.4967 225.005,56.4967 222.5,55.5C 221.926,53.2121 220.926,51.0454 219.5,49C 218.167,48.3333 216.833,48.3333 215.5,49C 216.056,49.3826 216.389,49.8826 216.5,50.5C 214.833,50.5 213.167,50.5 211.5,50.5C 211.5,49.5 211.5,48.5 211.5,47.5C 213.735,47.7947 215.735,47.4614 217.5,46.5C 218.404,45.791 218.737,44.791 218.5,43.5C 215.941,43.1984 213.607,43.5318 211.5,44.5C 210.596,45.209 210.263,46.209 210.5,47.5C 208.419,46.2804 206.419,45.6137 204.5,45.5C 204.167,46 203.833,46.5 203.5,47C 206.335,50.578 205.668,51.7446 201.5,50.5C 201.5,49.8333 201.5,49.1667 201.5,48.5C 202.499,45.8382 203.499,43.1716 204.5,40.5C 213.75,39.5279 223.083,39.1945 232.5,39.5 Z"/></g>
<g><path style="opacity:1" fill="#efb26d" d="M 211.5,44.5 C 212.918,46.3079 214.918,46.9746 217.5,46.5C 215.735,47.4614 213.735,47.7947 211.5,47.5C 211.167,47.5 210.833,47.5 210.5,47.5C 210.263,46.209 210.596,45.209 211.5,44.5 Z"/></g>
<g><path style="opacity:1" fill="#fcf5e1" d="M 211.5,44.5 C 214.082,44.0254 216.082,44.6921 217.5,46.5C 214.918,46.9746 212.918,46.3079 211.5,44.5 Z"/></g>
<g><path style="opacity:1" fill="#fcdeb5" d="M 224.5,43.5 C 226.167,43.5 227.833,43.5 229.5,43.5C 229.616,46.9103 227.95,48.2436 224.5,47.5C 224.5,46.1667 224.5,44.8333 224.5,43.5 Z"/></g>
<g><path style="opacity:1" fill="#f8d296" d="M 211.5,44.5 C 213.607,43.5318 215.941,43.1984 218.5,43.5C 218.737,44.791 218.404,45.791 217.5,46.5C 216.082,44.6921 214.082,44.0254 211.5,44.5 Z"/></g>
<g><path style="opacity:1" fill="#16709a" d="M 131.5,36.5 C 132.363,41.6184 133.696,46.6184 135.5,51.5C 137.246,46.5967 138.58,41.5967 139.5,36.5C 143.167,36.5 146.833,36.5 150.5,36.5C 150.666,43.175 150.5,49.8417 150,56.5C 148.248,58.3509 146.748,60.3509 145.5,62.5C 144.672,56.3466 144.172,50.0133 144,43.5C 142.991,45.0249 142.491,46.6916 142.5,48.5C 141.35,53.4404 140.35,58.4404 139.5,63.5C 137.076,63.8076 134.743,63.4742 132.5,62.5C 130.853,57.9095 129.519,53.2428 128.5,48.5C 128.688,46.8967 128.188,45.5634 127,44.5C 126.501,50.4908 126.334,56.4908 126.5,62.5C 124.5,62.5 122.5,62.5 120.5,62.5C 120.5,53.8333 120.5,45.1667 120.5,36.5C 124.167,36.5 127.833,36.5 131.5,36.5 Z"/></g>
<g><path style="opacity:1" fill="#fae3be" d="M 196.5,59.5 C 195.883,59.3893 195.383,59.056 195,58.5C 194.667,56.1667 194.333,53.8333 194,51.5C 192.57,54.3527 191.737,57.3527 191.5,60.5C 188.615,60.8064 185.948,60.4731 183.5,59.5C 186.082,59.9746 188.082,59.3079 189.5,57.5C 190.736,55.351 191.736,53.0177 192.5,50.5C 193.151,49.9094 193.818,49.2427 194.5,48.5C 195.313,52.1616 195.979,55.8282 196.5,59.5 Z"/></g>
<g><path style="opacity:1" fill="#98bbcb" d="M 97.5,51.5 C 97.573,53.0269 96.9063,54.0269 95.5,54.5C 93.0521,53.5269 90.3854,53.1936 87.5,53.5C 90.7254,52.7632 94.0588,52.0965 97.5,51.5 Z"/></g>
<g><path style="opacity:1" fill="#faeac9" d="M 222.5,55.5 C 222.5,54.1667 222.5,52.8333 222.5,51.5C 224.5,51.5 226.5,51.5 228.5,51.5C 227.969,54.7794 225.969,56.1128 222.5,55.5 Z"/></g>
<g><path style="opacity:1" fill="#afc7d3" d="M 145.5,62.5 C 146.167,62.5 146.5,62.8333 146.5,63.5C 145.5,63.5 144.5,63.5 143.5,63.5C 143.821,58.3054 143.487,53.3054 142.5,48.5C 142.491,46.6916 142.991,45.0249 144,43.5C 144.172,50.0133 144.672,56.3466 145.5,62.5 Z"/></g>
<g><path style="opacity:1" fill="#fce8cc" d="M 211.5,50.5 C 213.167,50.5 214.833,50.5 216.5,50.5C 216.5,50.8333 216.5,51.1667 216.5,51.5C 216.5,52.5 216.5,53.5 216.5,54.5C 214.167,54.5 211.833,54.5 209.5,54.5C 209.157,52.5168 209.824,51.1834 211.5,50.5 Z"/></g>
<g><path style="opacity:1" fill="#f4a24d" d="M 216.5,51.5 C 217.434,52.5676 217.768,53.901 217.5,55.5C 214.615,55.8064 211.948,55.4731 209.5,54.5C 211.833,54.5 214.167,54.5 216.5,54.5C 216.5,53.5 216.5,52.5 216.5,51.5 Z"/></g>
<g><path style="opacity:1" fill="#f08a23" d="M 188.5,39.5 C 188.5,42.5 188.5,45.5 188.5,48.5C 187.532,46.3926 187.198,44.0593 187.5,41.5C 186.5,41.5 185.5,41.5 184.5,41.5C 184.5,46.8333 184.5,52.1667 184.5,57.5C 186.167,57.5 187.833,57.5 189.5,57.5C 188.082,59.3079 186.082,59.9746 183.5,59.5C 183.5,52.8333 183.5,46.1667 183.5,39.5C 185.167,39.5 186.833,39.5 188.5,39.5 Z"/></g>
<g><path style="opacity:1" fill="#8aafbd" d="M 128.5,48.5 C 127.513,53.3054 127.179,58.3054 127.5,63.5C 124.941,63.8016 122.607,63.4682 120.5,62.5C 122.5,62.5 124.5,62.5 126.5,62.5C 126.334,56.4908 126.501,50.4908 127,44.5C 128.188,45.5634 128.688,46.8967 128.5,48.5 Z"/></g>
<g><path style="opacity:1" fill="#97b4bf" d="M 167.5,54.5 C 167.077,56.7812 167.744,58.4479 169.5,59.5C 168.791,60.404 167.791,60.7373 166.5,60.5C 166.205,58.2646 166.539,56.2646 167.5,54.5 Z"/></g>
<g><path style="opacity:1" fill="#93b4c2" d="M 61.5,36.5 C 61.8333,36.5 62.1667,36.5 62.5,36.5C 62.5,44.1667 62.5,51.8333 62.5,59.5C 59.1667,59.5 55.8333,59.5 52.5,59.5C 52.8168,55.2984 52.4834,51.2984 51.5,47.5C 51.4614,46.2438 51.9614,45.2438 53,44.5C 53.4992,49.1548 53.6658,53.8215 53.5,58.5C 56.1667,58.5 58.8333,58.5 61.5,58.5C 61.5,51.1667 61.5,43.8333 61.5,36.5 Z"/></g>
<g><path style="opacity:1" fill="#78a7bd" d="M 139.5,36.5 C 143.298,35.5166 147.298,35.1832 151.5,35.5C 151.334,41.8421 151.5,48.1754 152,54.5C 152.383,53.944 152.883,53.6107 153.5,53.5C 151.745,56.4358 149.745,59.2691 147.5,62C 149.134,62.4935 150.801,62.6602 152.5,62.5C 150.735,63.4614 148.735,63.7947 146.5,63.5C 146.5,62.8333 146.167,62.5 145.5,62.5C 146.748,60.3509 148.248,58.3509 150,56.5C 150.5,49.8417 150.666,43.175 150.5,36.5C 146.833,36.5 143.167,36.5 139.5,36.5 Z"/></g>
<g><path style="opacity:1" fill="#9fb8c4" d="M 92.5,58.5 C 94.2789,60.3435 96.6122,61.0102 99.5,60.5C 97.0521,61.4731 94.3854,61.8064 91.5,61.5C 91.2627,60.209 91.596,59.209 92.5,58.5 Z"/></g>
</svg>
