<?xml version="1.0" encoding="UTF-8"?>
<!DOCTYPE svg PUBLIC "-//W3C//DTD SVG 1.1//EN" "http://www.w3.org/Graphics/SVG/1.1/DTD/svg11.dtd">
<svg xmlns="http://www.w3.org/2000/svg" version="1.1" width="225px" height="225px" style="shape-rendering:geometricPrecision; text-rendering:geometricPrecision; image-rendering:optimizeQuality; fill-rule:evenodd; clip-rule:evenodd" xmlns:xlink="http://www.w3.org/1999/xlink">
<g><path style="opacity:1" fill="#fefefe" d="M -0.5,-0.5 C 74.5,-0.5 149.5,-0.5 224.5,-0.5C 224.5,74.5 224.5,149.5 224.5,224.5C 149.5,224.5 74.5,224.5 -0.5,224.5C -0.5,149.5 -0.5,74.5 -0.5,-0.5 Z"/></g>
<g><path style="opacity:1" fill="#515873" d="M 154.5,82.5 C 153.274,86.62 151.274,90.2867 148.5,93.5C 147.833,87.8333 147.167,82.1667 146.5,76.5C 143.765,70.9282 139.765,66.4282 134.5,63C 119.471,59.7881 104.471,59.7881 89.5,63C 84.2866,66.5461 80.12,71.0461 77,76.5C 76.6667,81.8333 76.3333,87.1667 76,92.5C 73.0615,89.7396 71.2282,86.4063 70.5,82.5C 70.8316,73.1429 70.4983,63.8096 69.5,54.5C 68.5197,53.0186 67.353,51.6853 66,50.5C 65.3333,48.8333 65.3333,47.1667 66,45.5C 79.2162,32.9233 95.0495,26.9233 113.5,27.5C 120.724,27.3707 127.724,28.5373 134.5,31C 138.952,36.2526 144.119,40.7526 150,44.5C 151.608,47.3821 152.941,50.3821 154,53.5C 154.5,63.1609 154.666,72.8276 154.5,82.5 Z"/></g>
<g><path style="opacity:1" fill="#fea791" d="M 146.5,76.5 C 146.171,82.5368 146.504,88.5368 147.5,94.5C 148.107,94.3764 148.44,94.0431 148.5,93.5C 151.274,90.2867 153.274,86.62 154.5,82.5C 160.088,86.819 161.921,92.4856 160,99.5C 156.738,105.716 151.571,108.716 144.5,108.5C 143.908,111.691 142.741,114.691 141,117.5C 138.153,121.011 135.32,124.511 132.5,128C 134.212,135.439 135.545,142.939 136.5,150.5C 133.105,159.057 127.438,165.557 119.5,170C 108.711,173.261 99.8775,170.428 93,161.5C 90.6284,158.09 88.7951,154.423 87.5,150.5C 88.5098,142.774 89.8431,135.108 91.5,127.5C 89.1833,124.683 86.6833,122.016 84,119.5C 81.8944,116.392 80.2277,113.059 79,109.5C 67.4442,108.285 62.1109,101.952 63,90.5C 64.3467,86.6561 66.8467,83.9894 70.5,82.5C 71.2282,86.4063 73.0615,89.7396 76,92.5C 76.3333,87.1667 76.6667,81.8333 77,76.5C 80.12,71.0461 84.2866,66.5461 89.5,63C 104.471,59.7881 119.471,59.7881 134.5,63C 139.765,66.4282 143.765,70.9282 146.5,76.5 Z"/></g>
<g><path style="opacity:1" fill="#a77e81" d="M 146.5,76.5 C 147.167,82.1667 147.833,87.8333 148.5,93.5C 148.44,94.0431 148.107,94.3764 147.5,94.5C 146.504,88.5368 146.171,82.5368 146.5,76.5 Z"/></g>
<g><path style="opacity:1" fill="#51b5cd" d="M 87.5,150.5 C 88.7951,154.423 90.6284,158.09 93,161.5C 99.8775,170.428 108.711,173.261 119.5,170C 127.438,165.557 133.105,159.057 136.5,150.5C 151.186,148.781 163.352,153.448 173,164.5C 177.253,171.337 181.253,178.337 185,185.5C 186.058,194.552 182.224,200.386 173.5,203C 132.167,203.667 90.8333,203.667 49.5,203C 40.71,199.927 37.21,193.76 39,184.5C 43.9461,174.222 50.4461,165.056 58.5,157C 67.2653,151.089 76.932,148.922 87.5,150.5 Z"/></g>
</svg>
